# xmcd
#
# Track frame offsets:
# 150
# 23854
# 31788
# 42788
# 62407
# 75807
# 88463
# 104365
# 115240
# 136317
# 156904
# 169666
# 189350
# 206130
# 225130
# 246500
# 263145
# 287333
# 295724
# 316403
#
# Disc length: 4422 seconds
#
#
# Revision: 0
# Processed by: cddbd v1.5.2PL0 Copyright (c) Steve Scherf et al.
# Submitted via: FreeRIP 2.941 
#
DISCID=05114414
DTITLE=Coffee Creek - 6-11-92 Cicero's Basement [CD1]
DYEAR=1992
DGENRE=boots
TTITLE0=Are You Sure Hank Done It This Way?
TTITLE1=Love's Gonna Live Here
TTITLE2=Your Gentle Way Of Loving Me
TTITLE3=I Wanna Destroy You
TTITLE4=A Living Hell
TTITLE5=Wallflower
TTITLE6=Is Anyone Going to San Antone?
TTITLE7=You're Still on my Mind
TTITLE8=Sing Me Back Home
TTITLE9=Powderfinger
TTITLE10=Atomic Power
TTITLE11=Wrote a Song For Everyone
TTITLE12=instrumental
TTITLE13=Get Back to the Country
TTITLE14=Wasted Days and Wasted Nights
TTITLE15=Blue Eyes
TTITLE16=Moonshiner
TTITLE17=Wasn't Born to Follow
TTITLE18=Good Year for the Roses
TTITLE19=Do Re Mi
EXTD=Coffee Creek Is: \nBrian Henneman\nJay Farrar\nJeff Tweedy\nMike Heidorn 
EXTT0=
EXTT1=
EXTT2=
EXTT3=
EXTT4=
EXTT5=
EXTT6=
EXTT7=
EXTT8=
EXTT9=
EXTT10=
EXTT11=
EXTT12=
EXTT13=
EXTT14=
EXTT15=
EXTT16=
EXTT17=
EXTT18=
EXTT19=
PLAYORDER=
